<?xml version="1.0" standalone="no"?>
<svg xmlns:xlink="http://www.w3.org/1999/xlink" id="wave" style="transform:rotate(180deg); transition: 0.3s" viewBox="0 0 1440 100" version="1.1" xmlns="http://www.w3.org/2000/svg"><defs><linearGradient id="sw-gradient-0" x1="0" x2="0" y1="1" y2="0"><stop stop-color="rgba(231, 211, 158, 1)" offset="0%"/><stop stop-color="rgba(231, 211, 158, 1)" offset="100%"/></linearGradient></defs><path style="transform:translate(0, 0px); opacity:1" fill="url(#sw-gradient-0)" d="M0,30L40,25C80,20,160,10,240,16.7C320,23,400,47,480,48.3C560,50,640,30,720,18.3C800,7,880,3,960,8.3C1040,13,1120,27,1200,41.7C1280,57,1360,73,1440,81.7C1520,90,1600,90,1680,80C1760,70,1840,50,1920,46.7C2000,43,2080,57,2160,51.7C2240,47,2320,23,2400,26.7C2480,30,2560,60,2640,73.3C2720,87,2800,83,2880,76.7C2960,70,3040,60,3120,50C3200,40,3280,30,3360,31.7C3440,33,3520,47,3600,43.3C3680,40,3760,20,3840,20C3920,20,4000,40,4080,45C4160,50,4240,40,4320,38.3C4400,37,4480,43,4560,51.7C4640,60,4720,70,4800,66.7C4880,63,4960,47,5040,43.3C5120,40,5200,50,5280,56.7C5360,63,5440,67,5520,71.7C5600,77,5680,83,5720,86.7L5760,90L5760,100L5720,100C5680,100,5600,100,5520,100C5440,100,5360,100,5280,100C5200,100,5120,100,5040,100C4960,100,4880,100,4800,100C4720,100,4640,100,4560,100C4480,100,4400,100,4320,100C4240,100,4160,100,4080,100C4000,100,3920,100,3840,100C3760,100,3680,100,3600,100C3520,100,3440,100,3360,100C3280,100,3200,100,3120,100C3040,100,2960,100,2880,100C2800,100,2720,100,2640,100C2560,100,2480,100,2400,100C2320,100,2240,100,2160,100C2080,100,2000,100,1920,100C1840,100,1760,100,1680,100C1600,100,1520,100,1440,100C1360,100,1280,100,1200,100C1120,100,1040,100,960,100C880,100,800,100,720,100C640,100,560,100,480,100C400,100,320,100,240,100C160,100,80,100,40,100L0,100Z"/></svg>